<svg width="640" height="320" viewBox="0 0 640 320" fill="none" xmlns="http://www.w3.org/2000/svg">
  <defs>
    <linearGradient id="cardBg" x1="54" y1="30" x2="592" y2="274" gradientUnits="userSpaceOnUse">
      <stop stop-color="#FFF8E8"/>
      <stop offset="0.5" stop-color="#FFF2D2"/>
      <stop offset="1" stop-color="#FFE3BF"/>
    </linearGradient>
    <linearGradient id="ctaBg" x1="84" y1="241" x2="272" y2="241" gradientUnits="userSpaceOnUse">
      <stop stop-color="#F59E0B"/>
      <stop offset="1" stop-color="#EA580C"/>
    </linearGradient>
    <linearGradient id="panelBg" x1="420" y1="74" x2="560" y2="208" gradientUnits="userSpaceOnUse">
      <stop stop-color="#FFFFFF"/>
      <stop offset="1" stop-color="#FFF7ED"/>
    </linearGradient>
    <filter id="shadow" x="14" y="12" width="612" height="260" filterUnits="userSpaceOnUse" color-interpolation-filters="sRGB">
      <feFlood flood-opacity="0" result="BackgroundImageFix"/>
      <feColorMatrix in="SourceAlpha" type="matrix" values="0 0 0 0 0 0 0 0 0 0 0 0 0 0 0 0 0 0 127 0" result="hardAlpha"/>
      <feOffset dy="16"/>
      <feGaussianBlur stdDeviation="20"/>
      <feColorMatrix type="matrix" values="0 0 0 0 0.71 0 0 0 0 0.33 0 0 0 0 0.04 0 0 0 0.16 0"/>
      <feBlend mode="normal" in2="BackgroundImageFix" result="effect1_dropShadow_0_1"/>
      <feBlend mode="normal" in="SourceGraphic" in2="effect1_dropShadow_0_1" result="shape"/>
    </filter>
  </defs>

  <g filter="url(#shadow)">
    <rect x="38" y="28" width="564" height="220" rx="30" fill="url(#cardBg)"/>
    <circle cx="524" cy="62" r="48" fill="#FCD34D" fill-opacity="0.22"/>
    <circle cx="108" cy="234" r="44" fill="#FDBA74" fill-opacity="0.18"/>
    <path d="M402 28C448 56 494 88 602 84V248H400L402 28Z" fill="#FFFFFF" fill-opacity="0.24"/>
    <path d="M84 128H352" stroke="#F59E0B" stroke-width="6" stroke-linecap="round" stroke-opacity="0.18"/>
    <path d="M84 160H320" stroke="#F59E0B" stroke-width="6" stroke-linecap="round" stroke-opacity="0.12"/>

    <text x="84" y="76" fill="#B45309" font-family="'Segoe UI', 'Malgun Gothic', sans-serif" font-size="18" font-weight="800" letter-spacing="0.16em">
      WRITING PLAYGROUND
    </text>
    <text x="84" y="120" fill="#7C2D12" font-family="'Segoe UI', 'Malgun Gothic', sans-serif" font-size="42" font-weight="900" letter-spacing="-0.03em">
      끄적끄적 아지트
    </text>
    <text x="84" y="168" fill="#334155" font-family="'Segoe UI', 'Malgun Gothic', sans-serif" font-size="25" font-weight="800">
      초등교사가 만든
    </text>
    <text x="84" y="201" fill="#334155" font-family="'Segoe UI', 'Malgun Gothic', sans-serif" font-size="25" font-weight="800">
      글쓰기 활동 플랫폼
    </text>

    <g>
      <rect x="84" y="220" width="188" height="42" rx="21" fill="url(#ctaBg)"/>
      <text x="114" y="247" fill="#FFFDF8" font-family="'Segoe UI', 'Malgun Gothic', sans-serif" font-size="19" font-weight="900">
        바로 가기
      </text>
      <path d="M196 241H238" stroke="#FFFDF8" stroke-width="4" stroke-linecap="round"/>
      <path d="M227 230L238 241L227 252" stroke="#FFFDF8" stroke-width="4" stroke-linecap="round" stroke-linejoin="round"/>
    </g>

    <g>
      <rect x="424" y="78" width="134" height="112" rx="24" fill="url(#panelBg)"/>
      <rect x="446" y="98" width="70" height="88" rx="14" fill="#FFFFFF" stroke="#FED7AA" stroke-width="3"/>
      <path d="M460 124H502" stroke="#FDBA74" stroke-width="5.5" stroke-linecap="round"/>
      <path d="M460 142H502" stroke="#FDBA74" stroke-width="5.5" stroke-linecap="round"/>
      <path d="M460 160H492" stroke="#FDBA74" stroke-width="5.5" stroke-linecap="round"/>
      <path d="M512 104L534 126" stroke="#F97316" stroke-width="8" stroke-linecap="round"/>
      <path d="M507 132L536 103" stroke="#FB923C" stroke-width="8" stroke-linecap="round"/>
      <path d="M504 136L510 160C511 164 516 165 519 163L543 139C546 136 545 131 541 130L518 123" fill="#F59E0B"/>
      <circle cx="526" cy="108" r="9" fill="#7C2D12"/>
      <circle cx="526" cy="108" r="4" fill="#FDE68A"/>
    </g>
  </g>
</svg>
